<?xml version="1.0" standalone="no"?>
<!DOCTYPE svg PUBLIC "-//W3C//DTD SVG 20010904//EN"
 "http://www.w3.org/TR/2001/REC-SVG-20010904/DTD/svg10.dtd">
<svg version="1.0" xmlns="http://www.w3.org/2000/svg"
 width="225.000000pt" height="225.000000pt" viewBox="0 0 225.000000 225.000000"
 preserveAspectRatio="xMidYMid meet">

<g transform="translate(0.000000,225.000000) scale(0.100000,-0.100000)"
fill="#000000" stroke="none">
<path d="M385 1558 c-3 -18 -16 -118 -30 -223 -14 -104 -28 -199 -30 -210 -4
-17 9 -27 72 -59 l76 -37 36 36 c41 43 68 55 119 55 76 0 142 -69 142 -148 0
-92 -57 -152 -145 -152 -57 0 -96 22 -131 71 l-25 37 -79 -46 c-69 -40 -77
-48 -69 -65 21 -39 93 -100 148 -125 49 -23 69 -27 156 -27 95 0 103 2 164 35
108 58 154 142 153 279 -1 137 -81 248 -202 283 -61 17 -146 14 -194 -6 -22
-9 -41 -15 -43 -12 -2 2 2 44 8 95 l13 91 188 0 188 0 0 80 0 80 -255 0 -254
0 -6 -32z"/>
<path d="M1351 1574 c-179 -48 -313 -195 -343 -377 -15 -92 1 -191 46 -282
138 -280 543 -344 755 -120 83 88 131 210 131 338 l0 57 -240 0 -240 0 0 -80
0 -80 145 0 c94 0 145 -4 145 -10 0 -21 -40 -88 -71 -119 -50 -51 -86 -64
-180 -69 -78 -4 -92 -2 -146 23 -115 51 -177 146 -178 270 0 123 63 218 183
273 48 21 64 24 140 20 104 -5 148 -25 211 -93 l42 -46 67 36 c37 20 71 40 75
45 15 13 -109 135 -171 168 -113 60 -253 78 -371 46z"/>
</g>
</svg>
