<?xml version="1.0" standalone="no"?>
<!DOCTYPE svg PUBLIC "-//W3C//DTD SVG 20010904//EN"
 "http://www.w3.org/TR/2001/REC-SVG-20010904/DTD/svg10.dtd">
<svg version="1.0" xmlns="http://www.w3.org/2000/svg"
 width="209.000000pt" height="242.000000pt" viewBox="0 0 209.000000 242.000000"
 preserveAspectRatio="xMidYMid meet">

<g transform="translate(0.000000,242.000000) scale(0.100000,-0.100000)"
fill="#000000" stroke="none">
<path d="M1041 2018 c1 -176 15 -155 20 31 3 84 0 116 -9 119 -9 3 -12 -32
-11 -150z"/>
<path d="M680 2126 c0 -13 103 -267 106 -263 10 10 -80 267 -93 267 -7 0 -13
-2 -13 -4z"/>
<path d="M1385 2118 c-2 -7 -22 -68 -44 -135 -43 -127 -49 -152 -29 -118 17
29 98 238 98 252 0 17 -19 17 -25 1z"/>
<path d="M880 2060 c0 -11 5 -20 10 -20 6 0 10 9 10 20 0 11 -4 20 -10 20 -5
0 -10 -9 -10 -20z"/>
<path d="M890 1973 c0 -5 7 -30 14 -58 l14 -50 1 58 c1 44 -2 57 -14 57 -8 0
-15 -3 -15 -7z"/>
<path d="M1175 1924 c-9 -72 0 -80 14 -14 13 62 14 70 2 70 -5 0 -12 -25 -16
-56z"/>
<path d="M1485 1971 c-7 -12 12 -24 25 -16 11 7 4 25 -10 25 -5 0 -11 -4 -15
-9z"/>
<path d="M405 1950 c-4 -6 20 -41 52 -77 82 -95 156 -171 146 -152 -9 18 -183
239 -188 239 -2 0 -7 -5 -10 -10z"/>
<path d="M1622 1889 c-100 -122 -144 -179 -139 -179 3 0 53 52 113 115 76 82
104 119 97 126 -8 8 -29 -11 -71 -62z"/>
<path d="M620 1908 c0 -7 18 -33 41 -58 l40 -45 -28 54 c-27 53 -53 77 -53 49z"/>
<path d="M1426 1870 c-16 -28 -26 -53 -24 -56 5 -5 71 81 70 92 -1 25 -22 8
-46 -36z"/>
<path d="M933 1746 c-140 -34 -247 -120 -306 -244 -27 -57 -32 -78 -32 -142 1
-98 22 -162 94 -290 61 -107 82 -171 96 -295 5 -39 16 -73 32 -97 23 -33 25
-49 28 -154 l3 -117 43 -43 c24 -24 48 -44 54 -43 5 0 4 3 -2 6 -7 2 -13 11
-13 19 0 8 -5 14 -12 14 -6 0 -9 1 -7 3 2 2 36 0 74 -3 l70 -7 -60 -3 -60 -3
80 -9 c44 -6 96 -10 115 -10 l35 0 -30 -14 c-21 -9 -50 -12 -97 -7 -74 6 -92
-7 -37 -26 45 -16 95 -14 134 5 45 21 125 93 138 124 12 29 16 140 5 156 -9
12 6 61 34 116 10 20 27 83 37 140 21 119 33 149 101 268 92 161 103 285 37
424 -61 128 -160 206 -295 235 -69 14 -193 13 -259 -3z m291 -28 c120 -39 201
-111 253 -225 23 -48 27 -72 28 -143 0 -106 -11 -141 -80 -260 -74 -127 -82
-146 -95 -226 -5 -38 -15 -90 -21 -117 l-11 -47 -52 5 c-47 4 -49 4 -18 -7 45
-16 40 -25 -19 -33 -39 -5 -54 -4 -60 6 -6 10 -9 11 -9 2 0 -19 -134 -18 -149
0 -7 9 -9 49 -7 113 2 54 4 125 5 157 1 66 18 77 24 15 3 -41 4 -41 5 10 1 28
7 52 12 53 6 0 24 1 40 1 17 0 34 -1 39 -1 4 -1 11 -36 15 -78 3 -43 11 -91
16 -108 11 -33 10 -27 -6 104 -4 38 -3 52 5 47 6 -4 11 -30 11 -57 0 -28 5
-60 12 -72 6 -12 14 -58 18 -102 l7 -80 1 80 c1 53 -4 89 -13 105 -8 14 -15
50 -15 80 0 30 -4 61 -9 69 -10 15 -8 22 53 156 25 56 36 95 36 128 0 51 -3
55 -26 32 -14 -13 -14 -15 0 -15 10 0 16 -9 16 -22 -1 -31 -93 -241 -107 -245
-19 -7 -27 64 -14 122 7 29 25 73 41 99 32 49 37 66 20 66 -5 0 -10 -9 -10
-20 0 -14 -5 -18 -17 -14 -14 5 -15 4 -4 -4 11 -8 10 -14 -4 -36 -14 -22 -25
-26 -61 -26 -41 0 -45 2 -62 38 -9 20 -20 39 -24 40 -17 7 -7 24 10 17 14 -5
15 -4 5 6 -20 20 -42 -5 -25 -29 22 -31 43 -74 47 -93 2 -10 9 -27 15 -36 9
-15 10 -13 8 12 -2 24 1 30 16 30 18 0 19 -7 17 -80 -1 -43 -5 -83 -7 -87 -9
-15 -24 3 -25 30 -1 23 -2 22 -8 -7 -3 -19 -12 -36 -19 -39 -14 -4 -120 210
-132 268 -6 29 -8 30 -9 9 -1 -24 52 -156 100 -250 15 -30 18 -44 10 -52 -6
-6 -11 -37 -11 -70 0 -32 -4 -66 -9 -75 -4 -9 -5 -59 -2 -110 l6 -92 -25 0
c-39 0 -96 19 -110 35 -7 9 -23 68 -36 132 -21 103 -30 127 -82 219 -83 142
-104 202 -104 294 0 166 102 311 260 370 113 43 234 45 346 8z m-38 -1080 c-6
-4 -27 -8 -46 -8 -30 -1 -32 -3 -13 -10 11 -5 42 -7 68 -6 42 2 45 1 29 -11
-10 -7 -39 -13 -65 -13 -26 0 -54 -3 -63 -6 -24 -9 -9 -24 27 -25 l32 -1 -30
-9 c-20 -5 -6 -7 45 -4 61 3 69 2 40 -6 -19 -5 -84 -10 -143 -12 -60 -1 -101
-4 -91 -6 10 -2 13 -6 6 -10 -5 -3 45 -6 113 -6 68 0 121 -3 118 -7 -2 -5 -19
-8 -38 -8 -18 0 -42 -3 -52 -7 -15 -6 -13 -9 12 -14 20 -4 2 -8 -55 -9 -49 -2
-68 -5 -45 -7 22 -3 44 -9 50 -14 5 -5 20 -9 33 -9 50 0 8 -20 -46 -22 -57 -2
-57 -2 -9 -5 26 -2 47 -8 47 -13 0 -5 8 -11 18 -13 9 -3 -16 -5 -56 -6 -77 -1
-131 17 -133 44 -1 8 -3 20 -4 25 -1 6 -3 18 -4 29 -1 13 -11 21 -36 25 -38 7
-38 7 -29 30 5 13 10 14 20 6 7 -7 25 -10 41 -8 26 4 25 5 -15 16 -47 14 -61
34 -42 57 9 10 9 15 1 15 -6 0 -11 8 -11 18 0 15 15 17 169 17 93 0 164 -3
157 -7z m-281 -210 c6 -31 4 -38 -9 -38 -17 0 -41 73 -30 91 10 17 32 -11 39
-53z m310 -48 c-3 -5 -16 -10 -28 -9 -20 1 -20 2 3 9 14 4 26 8 28 9 2 1 0 -3
-3 -9z"/>
<path d="M925 1706 c-51 -16 -128 -56 -122 -62 3 -3 22 3 44 14 49 26 112 42
193 52 l65 7 -70 1 c-38 0 -88 -5 -110 -12z"/>
<path d="M1250 1680 c0 -5 5 -10 10 -10 6 0 10 5 10 10 0 6 -4 10 -10 10 -5 0
-10 -4 -10 -10z"/>
<path d="M731 1577 c-13 -21 -12 -21 5 -5 10 10 16 20 13 22 -3 3 -11 -5 -18
-17z"/>
<path d="M1370 1558 c0 -3 11 -26 25 -49 14 -24 25 -38 25 -31 0 7 -11 30 -25
50 -14 20 -25 34 -25 30z"/>
<path d="M659 1465 c-25 -56 -34 -129 -22 -175 8 -31 10 -25 16 55 3 50 13
107 21 128 9 20 14 37 11 37 -4 0 -15 -20 -26 -45z"/>
<path d="M1472 1410 c0 -14 2 -19 5 -12 2 6 2 18 0 25 -3 6 -5 1 -5 -13z"/>
<path d="M1447 1317 c-5 -38 -6 -71 -3 -74 9 -10 17 42 14 93 l-3 49 -8 -68z"/>
<path d="M671 1327 c-1 -44 20 -117 34 -117 3 0 1 9 -5 21 -6 11 -15 48 -19
82 -8 62 -8 62 -10 14z"/>
<path d="M1481 1354 c0 -11 3 -14 6 -6 3 7 2 16 -1 19 -3 4 -6 -2 -5 -13z"/>
<path d="M1414 1290 c-6 -36 -10 -67 -8 -69 6 -7 25 82 22 107 -2 17 -7 3 -14
-38z"/>
<path d="M1018 1293 c7 -3 16 -2 19 1 4 3 -2 6 -13 5 -11 0 -14 -3 -6 -6z"/>
<path d="M1462 1232 c-7 -21 -23 -60 -37 -85 -13 -26 -21 -47 -16 -47 9 0 56
100 66 143 11 41 0 32 -13 -11z"/>
<path d="M670 1178 c0 -9 5 -20 10 -23 13 -8 13 5 0 25 -8 13 -10 13 -10 -2z"/>
<path d="M1346 1058 c-61 -104 -66 -117 -65 -168 l1 -55 8 52 c5 33 29 93 68
167 34 64 59 116 57 116 -2 0 -33 -50 -69 -112z"/>
<path d="M720 1091 c0 -5 5 -13 10 -16 6 -3 10 -2 10 4 0 5 -4 13 -10 16 -5 3
-10 2 -10 -4z"/>
<path d="M1285 1028 c-18 -26 -49 -127 -42 -135 3 -3 11 15 17 38 7 24 21 61
31 81 22 42 19 50 -6 16z"/>
<path d="M770 1028 c1 -2 14 -55 30 -118 22 -84 28 -100 24 -60 -6 54 -41 180
-49 180 -3 0 -5 -1 -5 -2z"/>
<path d="M1331 971 c-18 -34 -47 -199 -37 -208 5 -5 13 34 21 107 4 30 15 74
25 98 23 53 17 55 -9 3z"/>
<path d="M1055 928 c-5 -21 -4 -33 4 -36 6 -2 9 -7 6 -12 -3 -4 5 -6 16 -3
l21 6 -22 12 c-21 11 -21 13 -6 22 10 6 14 16 10 26 -10 26 -22 20 -29 -15z"/>
<path d="M1014 785 c0 -60 1 -84 3 -52 2 32 2 81 0 110 -2 29 -3 3 -3 -58z"/>
<path d="M831 744 c0 -11 3 -14 6 -6 3 7 2 16 -1 19 -3 4 -6 -2 -5 -13z"/>
<path d="M1098 713 c12 -2 30 -2 40 0 9 3 -1 5 -23 4 -22 0 -30 -2 -17 -4z"/>
<path d="M878 703 c7 -3 16 -2 19 1 4 3 -2 6 -13 5 -11 0 -14 -3 -6 -6z"/>
<path d="M898 623 c6 -2 18 -2 25 0 6 3 1 5 -13 5 -14 0 -19 -2 -12 -5z"/>
<path d="M963 613 c15 -2 39 -2 55 0 15 2 2 4 -28 4 -30 0 -43 -2 -27 -4z"/>
<path d="M898 593 c7 -3 16 -2 19 1 4 3 -2 6 -13 5 -11 0 -14 -3 -6 -6z"/>
<path d="M963 583 c15 -2 37 -2 50 0 12 2 0 4 -28 4 -27 0 -38 -2 -22 -4z"/>
<path d="M905 570 c3 -5 21 -10 38 -9 31 1 31 1 7 9 -36 11 -52 11 -45 0z"/>
<path d="M1018 433 c12 -2 30 -2 40 0 9 3 -1 5 -23 4 -22 0 -30 -2 -17 -4z"/>
<path d="M215 1710 c9 -14 265 -153 271 -147 7 6 -35 33 -162 106 -86 48 -122
62 -109 41z"/>
<path d="M1825 1701 c-16 -10 -75 -44 -130 -76 -55 -32 -95 -60 -88 -62 13 -5
273 137 273 149 0 13 -23 9 -55 -11z"/>
<path d="M240 1463 c0 -5 45 -18 100 -30 55 -11 100 -17 100 -13 0 3 -35 14
-77 23 -43 10 -88 20 -100 23 -13 4 -23 2 -23 -3z"/>
<path d="M1745 1445 c-49 -12 -84 -23 -76 -24 27 -2 191 33 191 41 0 11 -12 9
-115 -17z"/>
<path d="M252 1279 c-106 -7 -132 -12 -120 -24 6 -6 298 21 305 29 7 7 -28 6
-185 -5z"/>
<path d="M1652 1285 c3 -3 71 -13 150 -20 173 -17 171 -17 163 -6 -5 10 -56
16 -225 27 -52 3 -92 3 -88 -1z"/>
<path d="M395 1135 c-38 -19 -58 -33 -44 -30 38 7 119 45 119 55 0 13 6 15
-75 -25z"/>
<path d="M1620 1161 c0 -10 115 -61 138 -61 12 1 9 5 -9 15 -47 26 -129 55
-129 46z"/>
<path d="M425 1032 c-132 -71 -175 -96 -175 -104 0 -5 2 -8 5 -8 8 0 248 140
260 151 16 16 2 10 -90 -39z"/>
<path d="M1615 1049 c154 -92 219 -129 223 -124 9 9 -9 21 -134 89 -123 68
-179 89 -89 35z"/>
<path d="M506 923 c-52 -44 -67 -63 -48 -63 4 0 32 25 62 55 30 30 52 55 48
55 -3 0 -31 -21 -62 -47z"/>
<path d="M1530 963 c0 -10 103 -103 109 -97 2 2 -4 13 -15 25 -28 32 -94 82
-94 72z"/>
<path d="M519 793 c-139 -174 -136 -183 5 -15 73 87 97 122 83 122 -1 0 -41
-48 -88 -107z"/>
<path d="M1489 883 c14 -25 180 -223 188 -223 3 0 -1 8 -9 18 -8 9 -52 63 -97
120 -78 97 -103 123 -82 85z"/>
<path d="M636 808 c-27 -44 -126 -226 -126 -232 0 -3 4 -6 9 -6 5 0 39 59 75
130 37 72 64 130 62 130 -3 0 -12 -10 -20 -22z"/>
<path d="M1440 825 c0 -13 126 -255 133 -255 15 0 5 25 -59 140 -60 109 -74
131 -74 115z"/>
<path d="M993 323 c9 -2 25 -2 35 0 9 3 1 5 -18 5 -19 0 -27 -2 -17 -5z"/>
</g>
</svg>
